<svg width="757" height="208" viewBox="0 0 757 208" fill="none" xmlns="http://www.w3.org/2000/svg">
<path d="M256.965 133.408C251.553 138.688 246.537 139.48 237.429 139.48C224.493 139.48 211.953 131.692 211.953 116.776V71.5H228.189V106.348C228.189 120.076 234.393 125.224 243.237 125.224C252.873 125.224 260.793 119.416 260.793 106.348V71.5H276.897V137.5H260.793V134.86C260.925 131.296 263.301 127.204 264.489 123.772L261.717 122.716C260.529 126.148 259.605 130.9 256.965 133.408ZM347.189 116.116C347.189 128.92 337.157 139.612 315.641 139.612C292.937 139.612 282.245 126.148 282.245 115.06H298.481C298.481 118.492 304.949 124.432 317.357 124.432C327.389 124.432 330.689 120.868 330.689 117.172C330.689 104.236 282.773 112.816 282.773 89.056C282.773 78.76 292.673 69.52 313.529 69.52C336.893 69.52 345.737 81.004 345.737 90.244H329.501C329.501 86.02 323.297 82.72 312.605 82.72C305.345 82.72 299.009 84.7 299.009 88.924C299.009 98.428 347.189 89.32 347.189 116.116ZM389.011 139.612C362.215 139.612 347.827 123.772 347.827 104.104C347.827 84.436 363.535 69.52 385.843 69.52C408.811 69.52 423.067 85.624 422.935 103.84C422.935 105.16 422.935 108.328 422.803 109.516L367.231 109.384C367.231 116.644 373.831 125.752 387.427 125.752C396.271 125.752 401.683 121.924 403.003 118.624H421.483C419.503 125.488 409.735 139.612 389.011 139.612ZM367.231 98.56H404.059C404.059 89.452 397.327 82.324 386.239 82.324C375.019 82.324 367.231 90.244 367.231 98.56ZM449.995 76.12C456.991 70.708 464.251 69.52 477.187 69.52V84.568C460.819 84.568 443.791 90.376 443.791 108.724V137.5H427.687V71.5H443.791V73.48C443.791 78.496 441.019 84.568 439.039 89.188L441.811 90.376C443.791 85.756 445.903 79.156 449.995 76.12ZM493.801 71.5L506.737 114.268C507.529 117.172 506.605 121 506.605 124.036H509.509C509.641 121.132 508.717 117.172 509.641 114.268L522.973 71.5H540.133L553.597 114.268C554.521 117.172 553.597 121.132 553.597 124.036H556.633C556.633 121 555.709 117.172 556.501 114.268L569.437 71.5H586.201L563.233 137.5H545.413L532.873 89.056C532.081 86.284 533.137 82.324 533.137 79.42H530.101C530.101 82.324 531.157 86.284 530.365 89.056L517.693 137.5H500.005L477.037 71.5H493.801ZM589.274 61.6V45.1H606.83V61.6H589.274ZM590.198 137.5V71.5H606.17V137.5H590.198ZM676.416 116.116C676.416 128.92 666.384 139.612 644.868 139.612C622.164 139.612 611.472 126.148 611.472 115.06H627.708C627.708 118.492 634.176 124.432 646.584 124.432C656.616 124.432 659.916 120.868 659.916 117.172C659.916 104.236 612 112.816 612 89.056C612 78.76 621.9 69.52 642.756 69.52C666.12 69.52 674.964 81.004 674.964 90.244H658.728C658.728 86.02 652.524 82.72 641.832 82.72C634.572 82.72 628.236 84.7 628.236 88.924C628.236 98.428 676.416 89.32 676.416 116.116ZM718.237 139.612C691.441 139.612 677.053 123.772 677.053 104.104C677.053 84.436 692.761 69.52 715.069 69.52C738.037 69.52 752.293 85.624 752.161 103.84C752.161 105.16 752.161 108.328 752.029 109.516L696.457 109.384C696.457 116.644 703.057 125.752 716.653 125.752C725.497 125.752 730.909 121.924 732.229 118.624H750.709C748.729 125.488 738.961 139.612 718.237 139.612ZM696.457 98.56H733.285C733.285 89.452 726.553 82.324 715.465 82.324C704.245 82.324 696.457 90.244 696.457 98.56Z" fill="white"/>
<path d="M219.761 164.374C224.657 164.374 224.753 168.31 224.753 169.75V181.59C224.721 181.59 224.657 181.59 224.625 181.59V181.622H221.649L221.585 168.822C221.585 168.822 221.649 166.614 219.345 166.678C219.345 166.678 215.089 166.486 215.025 172.534V181.622H211.953V164.374H215.249L215.185 167.734C215.857 165.174 217.553 164.374 219.761 164.374ZM238.084 175.062V173.846H235.108C231.908 173.846 230.884 174.326 230.788 176.694C230.788 176.694 230.532 179.414 234.34 179.03C238.052 178.678 238.052 175.606 238.084 175.126C238.084 175.094 238.084 175.094 238.084 175.062ZM243.204 178.518V181.622C239.236 181.622 238.532 178.006 238.532 178.006C238.532 178.006 237.636 182.006 232.324 181.59C228.548 181.302 227.78 178.838 227.78 176.822C227.812 170.39 234.084 171.734 237.924 171.734L237.956 168.918C237.924 166.582 234.66 166.678 234.66 166.678C231.14 166.614 231.204 169.366 231.204 169.366H227.94C227.94 169.366 228.356 164.278 234.564 164.278C241.732 164.278 241.124 170.07 241.124 170.07V178.198C241.124 178.39 241.604 178.518 243.204 178.518ZM253.787 164.438H256.955L251.803 181.622H248.635L243.483 164.438H246.683L250.203 176.822L253.787 164.438ZM259.655 181.622V164.406H262.887V181.622H259.655ZM259.687 162.71V159.734H262.823V162.71H259.687ZM272.016 167.158C272.016 167.158 269.04 167.03 269.008 169.686C268.976 172.31 272.016 172.214 272.016 172.214C272.016 172.214 275.344 172.47 275.44 169.814C275.536 167.03 272.016 167.158 272.016 167.158ZM274.64 180.31H271.344C271.344 180.31 268.208 180.086 268.208 182.198C268.208 184.086 270.96 184.086 270.96 184.086H274.96C274.96 184.086 277.424 184.15 277.424 182.198C277.424 180.246 274.64 180.31 274.64 180.31ZM278.384 168.214C278.384 168.214 279.856 174.934 272.304 174.934C272.304 174.934 270.704 174.934 269.168 174.422C269.168 174.422 268.56 174.422 268.24 175.702C267.792 177.59 270.832 177.59 270.832 177.59H273.808C273.808 177.59 280.432 177.174 280.336 182.326C280.272 186.262 277.648 186.838 275.248 186.838H270.256C270.256 186.838 265.104 186.838 265.2 182.87C265.296 179.99 267.792 179.734 267.792 179.734C267.792 179.734 265.424 179.286 265.552 177.302C265.68 175.318 268.336 173.974 268.336 173.974C268.336 173.974 266 172.822 266 169.462C266 166.102 268.24 164.31 272.24 164.342C272.24 164.342 276.016 164.31 277.328 166.454C277.328 166.454 278.48 164.15 281.616 164.374V167.158C281.616 167.158 278.416 166.998 278.384 168.214ZM293.363 175.062V173.846H290.387C287.187 173.846 286.163 174.326 286.067 176.694C286.067 176.694 285.811 179.414 289.619 179.03C293.331 178.678 293.331 175.606 293.363 175.126C293.363 175.094 293.363 175.094 293.363 175.062ZM298.483 178.518V181.622C294.515 181.622 293.811 178.006 293.811 178.006C293.811 178.006 292.915 182.006 287.603 181.59C283.827 181.302 283.059 178.838 283.059 176.822C283.091 170.39 289.363 171.734 293.203 171.734L293.235 168.918C293.203 166.582 289.939 166.678 289.939 166.678C286.419 166.614 286.483 169.366 286.483 169.366H283.219C283.219 169.366 283.635 164.278 289.843 164.278C297.011 164.278 296.403 170.07 296.403 170.07V178.198C296.403 178.39 296.883 178.518 298.483 178.518ZM304.565 167.03V178.23C304.565 179.19 305.365 178.966 308.341 178.934V181.622C305.589 181.654 301.621 182.262 301.621 178.934V167.03H299.605V164.438H300.469H301.621V163.126V160.502H302.485H304.565V163.126V164.438H308.309V167.03H304.565ZM317.256 166.774C314.536 166.774 313.384 168.854 313.384 170.87H320.808C320.808 169.622 320.328 166.774 317.256 166.774ZM317.544 164.214C317.544 164.214 324.456 163.99 323.912 173.334H313.224C313.32 176.47 314.248 179.318 317.544 179.318C320.744 179.318 320.744 175.958 320.744 175.958H323.816C323.304 182.166 317.736 181.91 317.736 181.91C312.552 181.91 310.152 177.942 310.152 173.078C310.152 167.702 312.68 164.118 317.544 164.214ZM338.954 167.03V178.23C338.954 179.19 339.754 178.966 342.73 178.934V181.622C339.978 181.654 336.01 182.262 336.01 178.934V167.03H333.994V164.438H334.858H336.01V163.126V160.502H336.874H338.954V163.126V164.438H342.698V167.03H338.954ZM352.122 179.03C356.154 179.03 356.538 175.862 356.634 173.014C356.73 169.814 355.61 166.87 352.122 166.87C349.018 166.87 347.77 169.814 347.77 173.014C347.77 175.702 348.538 179.03 352.122 179.03ZM352.122 164.15C356.826 164.15 359.738 168.086 359.61 173.014C359.514 177.846 357.786 181.91 352.122 181.878C346.618 181.846 344.634 177.846 344.634 173.014C344.634 168.086 347.386 164.15 352.122 164.15ZM375.033 167.766C376.217 164.118 380.185 164.374 380.185 164.374C385.081 164.438 385.177 168.31 385.177 169.75V181.59C385.113 181.59 385.081 181.59 385.017 181.59V181.622H382.137V169.654C382.137 169.654 382.169 166.678 379.737 166.678C379.737 166.678 375.417 166.454 375.577 172.534V181.622H372.473V168.822C372.473 168.822 372.473 166.678 370.073 166.678C370.073 166.678 368.697 166.614 367.545 167.766C366.713 168.566 365.785 170.006 365.785 172.534V181.622H362.649V164.406H365.849L365.753 167.766C366.553 165.43 368.025 164.31 370.937 164.374C370.937 164.374 374.873 164.374 375.033 167.766ZM395.402 179.03C399.434 179.03 399.818 175.862 399.914 173.014C400.01 169.814 398.89 166.87 395.402 166.87C392.298 166.87 391.05 169.814 391.05 173.014C391.05 175.702 391.818 179.03 395.402 179.03ZM395.402 164.15C400.106 164.15 403.018 168.086 402.89 173.014C402.794 177.846 401.066 181.91 395.402 181.878C389.898 181.846 387.914 177.846 387.914 173.014C387.914 168.086 390.666 164.15 395.402 164.15ZM413.804 164.47L413.708 167.862C413.708 167.862 408.78 167.734 408.78 169.078V181.622H405.804V164.374H408.78V167.83C409.1 164.854 411.852 164.47 413.804 164.47ZM424.819 164.47L424.723 167.862C424.723 167.862 419.795 167.734 419.795 169.078V181.622H416.819V164.374H419.795V167.83C420.115 164.854 422.867 164.47 424.819 164.47ZM433.916 179.03C437.948 179.03 438.332 175.862 438.428 173.014C438.524 169.814 437.404 166.87 433.916 166.87C430.812 166.87 429.564 169.814 429.564 173.014C429.564 175.702 430.332 179.03 433.916 179.03ZM433.916 164.15C438.62 164.15 441.532 168.086 441.404 173.014C441.308 177.846 439.58 181.91 433.916 181.878C428.412 181.846 426.428 177.846 426.428 173.014C426.428 168.086 429.18 164.15 433.916 164.15ZM463.019 164.374H466.187L461.035 181.622H457.867L454.539 170.006L450.731 181.622H447.563L442.411 164.374H445.611L449.131 176.918L452.715 164.374H455.883L459.467 176.918L463.019 164.374ZM466.926 178.678H470.51V181.654L469.454 184.598H467.502L468.622 181.654H466.926V178.678ZM485.51 167.03V178.23C485.51 179.19 486.31 178.966 489.286 178.934V181.622C486.534 181.654 482.566 182.262 482.566 178.934V167.03H480.55V164.438H481.414H482.566V163.126V160.502H483.43H485.51V163.126V164.438H489.254V167.03H485.51ZM498.678 179.03C502.71 179.03 503.094 175.862 503.19 173.014C503.286 169.814 502.166 166.87 498.678 166.87C495.574 166.87 494.326 169.814 494.326 173.014C494.326 175.702 495.094 179.03 498.678 179.03ZM498.678 164.15C503.382 164.15 506.294 168.086 506.166 173.014C506.07 177.846 504.342 181.91 498.678 181.878C493.174 181.846 491.19 177.846 491.19 173.014C491.19 168.086 493.942 164.15 498.678 164.15ZM519.517 173.046C519.581 167.094 515.549 166.87 515.549 166.87C515.549 166.87 511.869 166.166 511.869 172.566C511.869 172.566 511.581 179.382 515.229 179.446C519.485 179.542 519.517 173.046 519.517 173.046ZM508.861 172.694C508.861 161.814 519.037 162.934 519.613 168.054L519.581 159.222H522.653L522.621 181.686H519.613V178.518C518.557 180.918 515.517 182.55 512.029 181.014C508.669 179.542 508.861 172.694 508.861 172.694ZM535.962 175.062V173.846H532.986C529.786 173.846 528.762 174.326 528.666 176.694C528.666 176.694 528.41 179.414 532.218 179.03C535.93 178.678 535.93 175.606 535.962 175.126C535.962 175.094 535.962 175.094 535.962 175.062ZM541.082 178.518V181.622C537.114 181.622 536.41 178.006 536.41 178.006C536.41 178.006 535.514 182.006 530.202 181.59C526.426 181.302 525.658 178.838 525.658 176.822C525.69 170.39 531.962 171.734 535.802 171.734L535.834 168.918C535.802 166.582 532.538 166.678 532.538 166.678C529.018 166.614 529.082 169.366 529.082 169.366H525.818C525.818 169.366 526.234 164.278 532.442 164.278C539.61 164.278 539.002 170.07 539.002 170.07V178.198C539.002 178.39 539.482 178.518 541.082 178.518ZM555.755 164.438L549.099 184.63C548.043 187.126 546.635 188.374 545.419 188.982C544.683 189.27 543.851 189.462 542.859 189.526V186.23C546.443 186.038 546.827 184.054 546.827 182.262C546.827 180.95 546.443 179.798 546.443 179.798L541.611 164.438H544.939L548.651 177.206L552.491 164.438H555.755ZM555.126 181.686V178.678L558.71 178.71V181.686H555.126Z" fill="white"/>
<path d="M139.419 47.5349C139.419 21.6369 160.414 0.642456 186.312 0.642456V160.465C186.312 186.363 165.317 207.357 139.419 207.357V47.5349Z" fill="white" fill-opacity="0.83"/>
<path d="M0.187988 0.642578C26.086 0.642578 47.0804 21.637 47.0804 47.535V207.357C21.1825 207.357 0.187988 186.363 0.187988 160.465V0.642578Z" fill="white" fill-opacity="0.83"/>
<path d="M47.0804 207.357C21.1824 207.357 0.187988 186.363 0.187988 160.465H186.312C186.312 186.363 165.318 207.357 139.42 207.357H47.0804Z" fill="white" fill-opacity="0.83"/>
</svg>
